<?xml version="1.0" encoding="utf-8"?><svg version="1.1" id="Layer_1" xmlns="http://www.w3.org/2000/svg" xmlns:xlink="http://www.w3.org/1999/xlink" x="0px" y="0px" viewBox="0 0 122.88 100.06" style="enable-background:new 0 0 122.88 100.06" xml:space="preserve"><style type="text/css">.st0{fill-rule:evenodd;clip-rule:evenodd;}</style><g><path class="st0" d="M6.38,0h110.11c3.51,0,6.39,2.87,6.39,6.38v87.29c0,3.51-2.87,6.38-6.39,6.38H6.38 c-3.51,0-6.38-2.87-6.38-6.38V6.38C0,2.87,2.87,0,6.38,0L6.38,0z M26.89,31.43h17.09c3.36,0,6.09,0.46,8.16,1.37 c2.07,0.92,3.79,2.23,5.15,3.93c1.35,1.71,2.33,3.7,2.94,5.97c0.61,2.27,0.92,4.67,0.92,7.21c0,3.98-0.45,7.06-1.36,9.25 c-0.9,2.19-2.16,4.03-3.77,5.51c-1.61,1.48-3.33,2.47-5.18,2.96c-2.52,0.68-4.81,1.01-6.85,1.01H26.89V31.43L26.89,31.43z M38.37,39.85v20.32h2.82c2.41,0,4.12-0.27,5.15-0.8c1.01-0.54,1.81-1.46,2.39-2.79c0.58-1.33,0.87-3.48,0.87-6.46 c0-3.94-0.64-6.63-1.93-8.09c-1.29-1.45-3.43-2.18-6.42-2.18H38.37L38.37,39.85z M64.65,31.43h30.77v7.95H76.19v5.92h17.83v7.59 H76.19v7.33h19.8v8.42H64.65V31.43L64.65,31.43z"/></g></svg>